<?xml version="1.0" encoding="utf-8"?>
<!-- Generator: Adobe Illustrator 19.2.1, SVG Export Plug-In . SVG Version: 6.00 Build 0)  -->
<svg version="1.1" id="Layer_1" xmlns="http://www.w3.org/2000/svg" xmlns:xlink="http://www.w3.org/1999/xlink" x="0px" y="0px"
	 viewBox="0 0 800 800" style="enable-background:new 0 0 800 800;" xml:space="preserve">
<style type="text/css">
	.st0{fill:#CE0909;}
	.st1{fill:#B70000;}
	.st2{fill:#960000;}
	.st3{fill:#FFFFFF;}
</style>
<path class="st0" d="M793,514.7C793,668.4,668.4,793,514.7,793H283.3C129.6,793,5,668.4,5,514.7V283.3C5,129.6,129.6,5,283.3,5
	h231.3C668.4,5,793,129.6,793,283.3V514.7z"/>
<path class="st1" d="M5,283.3C5,129.6,129.6,5,283.3,5h231.3C668.4,5,793,129.6,793,283.3v231.3C793,668.4,668.4,793,514.7,793"/>
<g>
	<path class="st2" d="M514.7,5C668.4,5,793,129.6,793,283.3v231.3C793,668.4,668.4,793,514.7,793"/>
	<path class="st2" d="M425.7,421.9l106.8-106.8c7.6-7.6,7.6-19.1,0-26.7c-7.6-7.6-19.1-7.6-26.7,0L399,395.2L292.2,288.4
		c-7.6-7.6-19.1-7.6-26.7,0c-7.6,7.6-7.6,19.1,0,26.7l106.8,106.8L265.5,528.6c-7.6,7.6-7.6,19.1,0,26.7c3.8,3.8,8.9,5.1,12.7,5.1
		s8.9-1.3,12.7-5.1l106.8-106.8l106.8,106.8c3.8,3.8,8.9,5.1,12.7,5.1c3.8,0,8.9-1.3,12.7-5.1c7.6-7.6,7.6-19.1,0-26.7L425.7,421.9z
		"/>
</g>
<path class="st3" d="M425.7,399l106.8-106.8c7.6-7.6,7.6-19.1,0-26.7c-7.6-7.6-19.1-7.6-26.7,0L399,372.3L292.2,265.5
	c-7.6-7.6-19.1-7.6-26.7,0c-7.6,7.6-7.6,19.1,0,26.7L372.3,399L265.5,505.8c-7.6,7.6-7.6,19.1,0,26.7c3.8,3.8,8.9,5.1,12.7,5.1
	s8.9-1.3,12.7-5.1l106.8-106.8l106.8,106.8c3.8,3.8,8.9,5.1,12.7,5.1c3.8,0,8.9-1.3,12.7-5.1c7.6-7.6,7.6-19.1,0-26.7L425.7,399z"/>
</svg>
